{
  "images": [
    {"uri": "data:image/png;base64,"},
    {"uri": "data:image/png;base64,"}
  ],
  "accessors": [
    {
      "componentType": 5126,
      "min": [
        -8.5,
        -14.999998092651367,
        -15.5
      ],
      "byteOffset": 0,
      "bufferView": 0,
      "max": [
        8.500000953674316,
        12.999999046325684,
        17.5
      ],
      "count": 5166,
      "type": "VEC3"
    },
    {
      "componentType": 5126,
      "byteOffset": 0,
      "bufferView": 1,
      "count": 5166,
      "type": "VEC3"
    },
    {
      "componentType": 5126,
      "byteOffset": 0,
      "bufferView": 2,
      "count": 5166,
      "type": "VEC2"
    },
    {
      "componentType": 5126,
      "byteOffset": 0,
      "bufferView": 2,
      "count": 5166,
      "type": "VEC2"
    }
  ],
  "textures": [
    {
      "source": 0,
      "sampler": 0
    },
    {
      "source": 1,
      "sampler": 0
    }
  ],
  "buffers": [
    {
      "byteLength": 61992,
      "uri": "data:application/octet-stream;base64,"
    },
    {
      "byteLength": 61992,
      "uri": "data:application/octet-stream;base64,"
    },
    {
      "byteLength": 41328,
      "uri": "data:application/octet-stream;base64,"
    }
  ],
  "bufferViews": [
    {
      "byteOffset": 0,
      "byteLength": 61992,
      "buffer": 0,
      "byteStride": 12,
      "target": 34962
    },
    {
      "byteOffset": 0,
      "byteLength": 61992,
      "buffer": 1,
      "byteStride": 12,
      "target": 34962
    },
    {
      "byteOffset": 0,
      "byteLength": 41328,
      "buffer": 2,
      "byteStride": 8,
      "target": 34962
    }
  ],
  "samplers": [{
    "minFilter": 9728,
    "wrapT": 33071,
    "wrapS": 33071,
    "magFilter": 9728
  }],
  "scene": 0,
  "nodes": [{
    "rotation": [
      0,
      0,
      0,
      1
    ],
    "translation": [
      0,
      0,
      0
    ],
    "scale": [
      -1,
      1,
      1
    ],
    "mesh": 0
  }],
  "materials": [{
    "name": "C42_H_RainbowH_RedG_RBSpec-Material",
    "emissiveTexture": {
      "index": 1,
      "texCoord": 1
    },
    "pbrMetallicRoughness": {
      "baseColorTexture": {"index": 0},
      "metallicFactor": 0,
      "roughnessFactor": 1
    },
    "emissiveFactor": [
      1,
      1,
      1
    ]
  }],
  "animations": [],
  "scenes": [{"nodes": [0]}],
  "asset": {
    "generator": "VoxEdit Beta 935def85",
    "version": "2.0"
  },
  "meshes": [{
    "primitives": [{
      "mode": 4,
      "material": 0,
      "attributes": {
        "POSITION": 0,
        "TEXCOORD_1": 3,
        "TEXCOORD_0": 2,
        "NORMAL": 1
      }
    }],
    "name": "C42_H_RainbowH_RedG_RBSpec-Mesh"
  }]
}